<svg width="48" height="48" viewBox="0 0 48 48" fill="none" xmlns="http://www.w3.org/2000/svg">
	<path d="M37.7764 44.4472C37.9314 44.5247 38.1155 44.5164 38.2629 44.4253C38.4103 44.3342 38.5 44.1733 38.5 44C38.5 32.7635 39.5839 21.5413 40.2456 14.69C40.3228 13.8905 40.3943 13.1505 40.4576 12.477C42.728 12.2477 44.5 10.3308 44.5 8C44.5 5.51472 42.4853 3.5 40 3.5C37.5147 3.5 35.5 5.51472 35.5 8C35.5 9.35973 36.1034 10.5784 37.0555 11.403C35.6472 13.4992 34.0727 15.843 32.8257 18.0083C32.1632 19.1587 31.5864 20.27 31.1741 21.2764C31.1107 21.431 31.0508 21.5843 30.9947 21.7358C30.9513 21.6195 30.9058 21.5022 30.8583 21.3842C30.4739 20.4272 29.9461 19.3709 29.3714 18.276C29.1196 17.7961 28.8589 17.3089 28.596 16.8177C27.728 15.1955 26.8369 13.5302 26.1662 11.9451C27.5567 11.1801 28.5 9.70067 28.5 8C28.5 5.51472 26.4853 3.5 24 3.5C21.5147 3.5 19.5 5.51472 19.5 8C19.5 9.70067 20.4433 11.18 21.8338 11.9451C21.1631 13.5302 20.272 15.1955 19.404 16.8177C19.1411 17.3089 18.8804 17.7961 18.6286 18.276C18.0539 19.3709 17.5261 20.4272 17.1417 21.3842C17.0943 21.5022 17.0487 21.6195 17.0053 21.7358C16.9492 21.5843 16.8893 21.431 16.8259 21.2764C16.4136 20.27 15.8368 19.1587 15.1743 18.0083C13.9273 15.843 12.3528 13.4992 10.9445 11.403C11.8966 10.5784 12.5 9.35973 12.5 8C12.5 5.51472 10.4853 3.5 8 3.5C5.51472 3.5 3.5 5.51472 3.5 8C3.5 10.3308 5.27203 12.2477 7.54236 12.477C7.60568 13.1505 7.67715 13.8904 7.75436 14.6899C8.41609 21.5412 9.5 32.7634 9.5 44C9.5 44.1733 9.58972 44.3342 9.73713 44.4253C9.88454 44.5164 10.0686 44.5247 10.2236 44.4472C13.1138 43.0021 18.5144 42.25 24 42.25C29.4856 42.25 34.8862 43.0021 37.7764 44.4472Z" fill="#B0B000" stroke="black" stroke-linejoin="round"/>
</svg>
