<svg width="48" height="48" viewBox="0 0 48 48" fill="none" xmlns="http://www.w3.org/2000/svg">
	<path d="M17.3235 23.706L31.8393 6.77087H26.3393L11.8234 23.706H17.3235Z" fill="#BBBBBB"/>
	<path d="M28.8354 33.5L43 16.6667L31.8393 6.77087L17.3235 23.706L28.8354 33.5Z" fill="#BBBBBB"/>
	<path d="M20 44H42.1667H37.2857M20 44H14.5L3 34M20 44L28.8354 33.5M20 44L8.50001 34M3 34L5.5 31.0834L11.8234 23.706M3 34H8.50001M28.8354 33.5L43 16.6667L31.8393 6.77087M28.8354 33.5L17.3235 23.706M8.50001 34L17.3235 23.706M31.8393 6.77087L17.3235 23.706M31.8393 6.77087H26.3393L11.8234 23.706M17.3235 23.706H11.8234" stroke="black" stroke-linejoin="round"/>
</svg>
