<svg width="48" height="48" viewBox="0 0 48 48" fill="none" xmlns="http://www.w3.org/2000/svg">
	<path d="M37.3333 36.0133C37.3333 37.8533 38.8267 39.345 40.6667 39.345C42.5083 39.345 44 37.8517 44 36.0117C44 32.9003 43.1836 29.5357 42.027 26.4344C40.4486 23.4487 37.2391 21.3863 35.8317 20.7283C32.97 18.9383 30.0133 18.28 27.71 18.2917C29.6037 20.0989 34.1795 24.004 37.3333 25.1667C37.7656 25.4157 38.63 26.3843 38.63 28.2667C38.63 29.2119 38.303 30.6948 37.9774 32.1713C37.6547 33.635 37.3333 35.0923 37.3333 36.0133Z" fill="#FF0000"/>
	<path d="M18.2 8.67667L20.4683 6.41C20.7217 6.15667 21.2117 6 21.9017 6C24.08 6 28.2483 7.56 33.21 12.5233C36.0483 15.3617 38.0167 18.125 39.2383 20.445C40.2257 22.1894 41.211 24.2463 42.027 26.4344M18.2 8.67667C15.035 8.28333 12.5 8.85333 11.0433 10.315C9.58333 11.7733 9.10333 13.9133 9.72333 16.1867C9.78783 16.4234 9.86595 16.6647 9.95807 16.9094M18.2 8.67667L9.95807 16.9094M19.4667 25.145C19.53 25.6833 19.8267 26.2083 20.24 26.62C21.22 27.6 22.7983 27.5967 23.775 26.62C24.7517 25.6433 24.755 24.065 23.7783 23.0883C22.7983 22.11 21.2167 22.1083 20.24 23.0867C19.2633 24.065 19.4667 25.145 19.4667 25.145ZM19.4667 25.145C15.787 23.7897 13.3259 21.8595 11.7074 19.8751C10.8944 18.8782 10.3189 17.8676 9.95807 16.9094M38.63 28.2667L25.1533 41.73C24.5417 42.3417 23.655 42.6667 22.575 42.6667C19.4883 42.6667 14.795 40.2017 10.1883 35.595C5.86833 31.2767 4 27.475 4 24.7517C4 23.4917 4.4 22.4617 5.14167 21.7183L8.69833 18.1667L9.95807 16.9094M38.63 28.2667C38.63 26.3843 37.7656 25.4157 37.3333 25.1667C34.1795 24.004 29.6037 20.0989 27.71 18.2917M38.63 28.2667C38.63 29.2119 38.303 30.6948 37.9774 32.1713C37.6547 33.635 37.3333 35.0923 37.3333 36.0133C37.3333 37.8533 38.8267 39.345 40.6667 39.345C42.5083 39.345 44 37.8517 44 36.0117C44 32.9003 43.1836 29.5357 42.027 26.4344M27.71 18.2917C25.5567 16.1383 21.3217 10.9833 22.5 9.805C23.6917 8.61333 28.3133 12.34 30.9367 14.965C32.3733 16.4017 34.4167 18.71 35.8317 20.7283M27.71 18.2917C30.0133 18.28 32.97 18.9383 35.8317 20.7283M35.8317 20.7283C37.2391 21.3863 40.4486 23.4487 42.027 26.4344" stroke="black"/>
</svg>
