<svg width="48" height="48" viewBox="0 0 48 48" fill="none" xmlns="http://www.w3.org/2000/svg">
	<path d="M23.9181 44.5C26.0968 44.5 27.9716 43.4089 29.4117 41.8379C30.8504 40.2684 31.8859 38.1906 32.4032 36.1213C32.6258 35.2309 33.1518 34.4259 33.8468 33.6041C34.1932 33.1944 34.5735 32.7898 34.9703 32.3715C35.0079 32.3319 35.0455 32.2922 35.0833 32.2524C35.4424 31.8742 35.8128 31.4841 36.1683 31.0805C37.7516 29.2833 39.1242 27.1226 38.4062 23.8915C38.0868 22.4539 38.1782 21.6734 38.3623 21.1079C38.4562 20.8194 38.5787 20.5718 38.719 20.288L38.7296 20.2665C38.8713 19.9799 39.0292 19.6576 39.1467 19.27C39.6251 17.6911 39.3648 15.2746 36.3721 8.79047C35.3278 6.52771 32.0437 3.5 23.9181 3.5C15.7926 3.5 12.5085 6.52771 11.4642 8.79047C8.4715 15.2746 8.21116 17.6911 8.68962 19.27C8.80707 19.6576 8.96494 19.9799 9.10663 20.2665L9.11725 20.288C9.25758 20.5718 9.38003 20.8194 9.47395 21.1079C9.65805 21.6734 9.74952 22.4539 9.43004 23.8915C8.71204 27.1226 10.0847 29.2833 11.668 31.0805C12.0235 31.4841 12.3939 31.8742 12.7529 32.2524C12.7907 32.2922 12.8284 32.3319 12.8659 32.3715C13.2628 32.7898 13.643 33.1944 13.9895 33.6041C14.6844 34.4259 15.2105 35.2309 15.4331 36.1213C15.9504 38.1906 16.9859 40.2684 18.4246 41.8379C19.8647 43.4089 21.7395 44.5 23.9181 44.5ZM34.2443 17.7418C34.3607 17.8496 34.4684 17.9608 34.5675 18.0741C33.615 17.5214 32.5098 17.25 31.4181 17.25C30.1351 17.25 28.8333 17.6248 27.7828 18.3908C27.8988 18.1453 28.0443 17.9084 28.2216 17.691C28.7694 17.0191 29.6459 16.5 31 16.5C32.365 16.5 33.4753 17.0294 34.2443 17.7418ZM23.9181 34.5C25.9929 34.5 28.344 33.9828 30.318 32.6677C30.2425 32.7375 30.1661 32.8062 30.0889 32.8737C28.1602 34.5613 25.773 35.5 23.9181 35.5C22.0633 35.5 19.6761 34.5613 17.7474 32.8737C17.6702 32.8062 17.5938 32.7375 17.5183 32.6677C19.4922 33.9828 21.8434 34.5 23.9181 34.5ZM19.6867 17.6785C19.8653 17.9124 20.0074 18.17 20.117 18.4379C19.0557 17.6402 17.7272 17.25 16.4181 17.25C15.3783 17.25 14.3262 17.4962 13.4054 17.9973C13.487 17.9133 13.5736 17.8306 13.6652 17.7496C14.4779 17.0312 15.6329 16.5 17 16.5C18.3518 16.5 19.1813 17.0166 19.6867 17.6785Z" fill="#606060" stroke="black" stroke-linejoin="round"/>
	<path fill-rule="evenodd" clip-rule="evenodd" d="M29.7802 42.1757C28.2749 43.8179 26.2753 45 23.918 45C21.5608 45 19.5612 43.8179 18.0559 42.1757C16.5535 40.5367 15.4826 38.3812 14.9479 36.2425C14.7527 35.4619 14.284 34.7268 13.6076 33.927C13.2715 33.5295 12.9003 33.1343 12.5031 32.7156C12.4655 32.676 12.4277 32.6362 12.3897 32.5961C12.0316 32.2189 11.6547 31.822 11.2927 31.411C9.66773 29.5665 8.1725 27.2451 8.94184 23.7831C9.24745 22.4078 9.14785 21.7217 8.9984 21.2627C8.91578 21.0089 8.80741 20.7897 8.66132 20.4942L8.65829 20.4881C8.51684 20.2019 8.34173 19.8464 8.211 19.415C7.67074 17.6322 8.02475 15.0491 11.0101 8.58094C12.1617 6.08568 15.6669 3 23.918 3C32.1691 3 35.6743 6.08568 36.826 8.58094C39.8113 15.0491 40.1653 17.6322 39.6251 19.415C39.4943 19.8464 39.3192 20.2019 39.1778 20.4881L39.1747 20.4942C39.0286 20.7897 38.9203 21.0089 38.8376 21.2627C38.6882 21.7217 38.5886 22.4078 38.8942 23.7831C39.6636 27.2451 38.1683 29.5665 36.5434 31.411C36.1813 31.822 35.8044 32.219 35.4463 32.5962C35.4083 32.6362 35.3705 32.676 35.333 32.7156C34.9357 33.1343 34.5646 33.5295 34.2285 33.927C33.5521 34.7268 33.0833 35.4619 32.8882 36.2425C32.3535 38.3812 31.2826 40.5367 29.7802 42.1757ZM35.918 20C35.918 19.2714 35.5514 18.4153 34.8881 17.6825C34.0341 16.7391 32.6884 16 30.9999 16C29.0909 16 27.9586 16.9448 27.3875 18.0614C27.0611 18.6996 26.918 19.3939 26.918 20C27.2614 19.485 27.6931 19.0584 28.1829 18.7202C29.9244 17.5178 32.3998 17.433 34.2448 18.4659C34.9037 18.8348 35.4821 19.3461 35.918 20ZM30.6281 33.0617C32.5221 31.3228 33.918 28.894 33.918 26C33.4149 29.0188 31.8992 31.025 30.0077 32.2734C28.1398 33.5063 25.9055 34 23.918 34C21.9306 34 19.6962 33.5063 17.8283 32.2734C15.9369 31.025 14.4212 29.0188 13.918 26C13.918 28.894 15.3139 31.3228 17.208 33.0617C19.2408 34.9281 21.8474 36 23.918 36C25.9887 36 28.5953 34.9281 30.6281 33.0617ZM20.918 20C20.918 19.4125 20.804 18.7423 20.5249 18.1205C20.0122 16.9784 18.9425 16 16.9999 16C15.3645 16 14.002 16.6934 13.1008 17.5941C12.3488 18.3458 11.918 19.2419 11.918 20C12.3802 19.3067 13.0027 18.7736 13.7113 18.4008C15.5605 17.4277 17.9967 17.5459 19.7034 18.7554C20.1725 19.0878 20.5865 19.5027 20.918 20ZM31.918 36C30.918 40 27.918 44 23.918 44C19.918 44 16.918 40 15.918 36C15.5312 34.4527 14.3464 33.2047 13.1159 31.9087C11.1655 29.8542 9.10045 27.6791 9.91803 24C10.4119 21.7778 9.99118 20.9273 9.57052 20.0768C8.85538 18.631 8.14025 17.1852 11.918 9C12.8551 6.96974 15.918 4 23.918 4C31.918 4 34.981 6.96974 35.918 9C39.6958 17.1852 38.9807 18.631 38.2655 20.0768C37.8449 20.9273 37.4242 21.7778 37.918 24C38.7356 27.6791 36.6706 29.8542 34.7201 31.9087C33.4897 33.2047 32.3048 34.4527 31.918 36Z" fill="black"/>
</svg>
