<svg width="48" height="48" viewBox="0 0 48 48" fill="none" xmlns="http://www.w3.org/2000/svg">
	<path fill-rule="evenodd" clip-rule="evenodd" d="M23.5433 44C27.5433 44 30.5433 40 31.5433 36C31.9301 34.4527 33.115 33.2047 34.3454 31.9087C35.1018 31.112 35.8753 30.2972 36.4914 29.3835L37.6981 29.8817L39.3575 31.3805L40.321 31.6481L41.2846 31.9157L40.5887 30.6846L42.5157 31.2198L42.7833 30.2563L40.8563 29.7211L42.0874 29.0252L41.1239 28.7576L40.1604 28.4899L37.9657 28.9182L37.0203 28.4899C37.6521 27.2461 37.9442 25.8038 37.5433 24C37.0495 21.7778 37.4702 20.9273 37.8908 20.0768C38.3864 19.0749 38.882 18.0729 37.8823 14.8281L38.8752 14.5317L41.0617 15L42.0299 14.75L42.9982 14.5L41.7799 13.7818L43.7164 13.2818L43.4664 12.3135L41.5299 12.8135L42.2482 11.5953L41.2799 11.8453L40.3117 12.0953L38.6252 13.5635L37.5675 13.8746C37.1156 12.5839 36.4624 10.9914 35.5433 9C34.6063 6.96974 31.5433 4 23.5433 4C15.5433 4 12.4804 6.96974 11.5433 9C10.9785 10.2237 10.5141 11.2968 10.1352 12.2418L8.22955 10.3041L7.54184 8.17645L6.84122 7.46292L6.14059 6.74939L6.12768 8.16354L4.72644 6.73647L4.01291 7.4371L5.41415 8.86416L4 8.85125L4.70062 9.56479L5.40124 10.2783L7.51602 11.0048L9.73836 13.2675C8.06085 17.7822 8.62833 18.9295 9.19581 20.0768C9.61648 20.9273 10.0371 21.7778 9.54332 24C8.97941 26.5376 9.78685 28.3597 10.9822 29.9202L8.92933 31.9391L6.80164 32.6268L6.08811 33.3274L5.37458 34.0281L6.78873 34.041L5.36167 35.4422L6.06229 36.1558L7.48936 34.7545L7.47645 36.1687L8.18998 35.468L8.90351 34.7674L9.62995 32.6526L11.6215 30.6966C11.9847 31.1118 12.3651 31.5124 12.7412 31.9087C13.9717 33.2047 15.1565 34.4527 15.5433 36C16.5433 40 19.5433 44 23.5433 44ZM29.5433 36C28.5433 30 25.6252 28 23.5433 28C21.4615 28 18.5433 30 17.5433 36C17.5433 30 19.5433 26 23.5433 26C27.5433 26 29.5433 30 29.5433 36ZM29.6252 15L27.6252 17L28.6252 18L30.6252 16L32.6252 18L33.6252 17L31.6252 15L33.6252 13L32.6252 12L30.6252 14L28.6252 12L27.6252 13L29.6252 15ZM15.6252 15L13.6252 17L14.6252 18L16.6252 16L18.6252 18L19.6252 17L17.6252 15L19.6252 13L18.6252 12L16.6252 14L14.6252 12L13.6252 13L15.6252 15ZM29.5433 20.0768C29.5433 20.0768 27.5433 23 29.5433 23C31.5433 23 29.5433 20.0768 29.5433 20.0768Z" fill="#804060"/>
	<path fill-rule="evenodd" clip-rule="evenodd" d="M28.6252 12L27.6252 13L29.6252 15L27.6252 17L28.6252 18L30.6252 16L32.6252 18L33.6252 17L31.6252 15L33.6252 13L32.6252 12L30.6252 14L28.6252 12ZM27.965 31.1861C28.6408 32.3802 29.2031 33.9586 29.5433 36C29.5433 34.0345 29.3287 32.2836 28.8995 30.8176C28.0184 27.8085 26.233 26 23.5433 26C20.8537 26 19.0683 27.8085 18.1872 30.8176C17.758 32.2836 17.5433 34.0345 17.5433 36C17.8836 33.9586 18.4459 32.3802 19.1217 31.1861C20.4322 28.8706 22.1698 28 23.5433 28C24.9169 28 26.6545 28.8706 27.965 31.1861ZM28.9817 21.0745C28.5895 21.9214 28.3285 23 29.5433 23C30.7582 23 30.4972 21.9214 30.105 21.0745C29.8515 20.5273 29.5433 20.0768 29.5433 20.0768C29.5433 20.0768 29.2351 20.5273 28.9817 21.0745Z" fill="black"/>
	<path fill-rule="evenodd" clip-rule="evenodd" d="M36.8367 30.608L37.1564 30.7399L38.6873 32.1226C38.8025 32.2267 38.9403 32.3025 39.0899 32.344L41.017 32.8793C41.4067 32.9875 41.8232 32.8503 42.0724 32.5317C42.1549 32.4262 42.2136 32.3076 42.2481 32.1834C42.5037 32.2544 42.7769 32.2209 43.0078 32.0904C43.2387 31.9599 43.4083 31.743 43.4793 31.4875L43.7469 30.524C43.8947 29.9918 43.5831 29.4406 43.051 29.2928C43.0855 29.1686 43.0963 29.0367 43.0801 28.9037C43.0309 28.5022 42.7448 28.1699 42.3551 28.0617L40.428 27.5264C40.2785 27.4849 40.1213 27.4787 39.9689 27.5084L38.3784 27.8188C38.7586 26.6448 38.8604 25.3171 38.5195 23.7831C38.2911 22.7553 38.2912 22.1198 38.3615 21.6829C38.4312 21.2497 38.5775 20.9441 38.7872 20.5202L38.7964 20.5016C39.0496 19.9898 39.3684 19.3454 39.4443 18.3712C39.5019 17.6326 39.4183 16.7502 39.1382 15.6107L40.8523 15.9778C41.0041 16.0103 41.1614 16.0071 41.3117 15.9682L43.2482 15.4683C43.6398 15.3671 43.9319 15.0401 43.9884 14.6396C44.0071 14.5069 43.9987 14.3748 43.9664 14.25C44.2232 14.1837 44.4432 14.0181 44.5779 13.7897C44.7126 13.5612 44.751 13.2886 44.6847 13.0318L44.4347 12.0635C44.2966 11.5288 43.7512 11.2072 43.2165 11.3453C43.1843 11.2205 43.1277 11.1008 43.0471 10.9938C42.8038 10.6707 42.3898 10.5259 41.9982 10.627L40.0617 11.127C39.9114 11.1658 39.7722 11.2391 39.6551 11.341L38.1763 12.6284C37.7416 11.4856 37.1761 10.1513 36.4513 8.58094C35.2996 6.08568 31.7945 3 23.5433 3C15.2922 3 11.787 6.08568 10.6354 8.58094C10.3258 9.25163 10.0454 9.87904 9.79197 10.4666L9.10837 9.77155L8.4934 7.86889C8.44565 7.72117 8.36417 7.5866 8.2554 7.47582L6.85415 6.04876C6.57077 5.76017 6.14145 5.67069 5.76638 5.82205C5.64212 5.8722 5.53193 5.94551 5.43998 6.03583C5.25416 5.8466 5.00079 5.73894 4.73559 5.73652C4.47039 5.7341 4.21508 5.83713 4.02584 6.02294L3.31231 6.72357C2.91824 7.11051 2.91246 7.74363 3.29938 8.1377C3.20739 8.22799 3.13209 8.33683 3.07968 8.46015C2.92149 8.8324 3.00312 9.26328 3.2865 9.55188L4.68773 10.9789C4.7965 11.0897 4.92957 11.1736 5.07639 11.2241L6.96797 11.8738L8.58401 13.5192C7.89084 15.4934 7.6219 16.8716 7.62525 17.9381C7.62909 19.1648 7.99659 19.9078 8.29569 20.5125L8.29949 20.5202C8.50918 20.9441 8.65552 21.2497 8.72523 21.6829C8.79553 22.1198 8.79554 22.7553 8.56716 23.7831C8.00814 26.2987 8.64465 28.2219 9.67446 29.8038L8.39677 31.0603L6.49411 31.6753C6.34639 31.723 6.21182 31.8045 6.10104 31.9133L4.67398 33.3145C4.38538 33.5979 4.29591 34.0272 4.44727 34.4023C4.49742 34.5266 4.57073 34.6368 4.66105 34.7287C4.47182 34.9145 4.36416 35.1679 4.36174 35.4331C4.35932 35.6983 4.46235 35.9536 4.64817 36.1428L5.34879 36.8564C5.73573 37.2505 6.36887 37.2562 6.76294 36.8693C6.85323 36.9613 6.96205 37.0366 7.08537 37.089C7.45762 37.2472 7.8885 37.1656 8.1771 36.8822L9.60416 35.481C9.71493 35.3722 9.79886 35.2391 9.84929 35.0923L10.4991 33.2007L11.5815 32.1376C11.7252 32.2909 11.8681 32.4413 12.008 32.5887L12.0088 32.5896L12.0095 32.5903L12.016 32.5972C13.2943 33.9436 14.2623 34.9989 14.5732 36.2425C15.1079 38.3812 16.1788 40.5367 17.6812 42.1757C19.1865 43.8179 21.1861 45 23.5433 45C25.9006 45 27.9002 43.8179 29.4055 42.1757C30.9079 40.5367 31.9788 38.3812 32.5135 36.2425C32.8244 34.9989 33.7924 33.9436 35.0707 32.5972L35.0965 32.57C35.6644 31.9718 36.281 31.3224 36.8367 30.608ZM36.4914 29.3835C35.8754 30.2972 35.1018 31.112 34.3454 31.9087C33.115 33.2047 31.9302 34.4527 31.5433 36C30.5433 40 27.5433 44 23.5433 44C19.5434 44 16.5433 40 15.5433 36C15.1565 34.4527 13.9717 33.2047 12.7412 31.9087C12.5928 31.7523 12.4436 31.5951 12.2951 31.4367C12.0674 31.1938 11.8413 30.9479 11.6215 30.6966L9.63054 32.6521L8.90354 34.7674L7.47647 36.1687L7.48938 34.7545L6.06232 36.1558L5.3617 35.4422L6.78876 34.041L5.3746 34.0281L6.80167 32.6268L8.92935 31.9391L10.9822 29.9202C9.78687 28.3597 8.97944 26.5376 9.54335 24C10.0372 21.7778 9.6165 20.9273 9.19584 20.0768C8.62836 18.9295 8.06088 17.7822 9.73839 13.2675L7.5166 11.0053L5.40127 10.2783L4.00003 8.85125L5.41419 8.86417L4.01293 7.4371L4.72647 6.73648L6.12771 8.16354L6.14062 6.74939L7.54187 8.17645L8.22958 10.3041L10.1352 12.2418C10.2635 11.922 10.4015 11.5874 10.5499 11.2374C10.84 10.5532 11.1697 9.80954 11.5433 9C12.4804 6.96974 15.5434 4 23.5433 4C31.5433 4 34.6063 6.96974 35.5433 9C36.4625 10.9914 37.1156 12.5839 37.5676 13.8746L38.6252 13.5635L40.3117 12.0953L42.2482 11.5953L41.5299 12.8135L43.4664 12.3135L43.7164 13.2818L41.7799 13.7818L42.9982 14.5L41.0617 15L38.8752 14.5317L37.8823 14.8281C37.9205 14.9518 37.9564 15.0722 37.9902 15.1895C38.8442 18.1493 38.3675 19.1131 37.8909 20.0768C37.4702 20.9273 37.0495 21.7778 37.5433 24C37.8835 25.5306 37.7247 26.8008 37.2828 27.9104C37.2039 28.1085 37.116 28.3015 37.0203 28.4899L37.9658 28.9182L40.1604 28.4899L42.0875 29.0252L40.8563 29.7211L42.7834 30.2563L42.5157 31.2198L40.5887 30.6846L41.2846 31.9157L39.3575 31.3805L37.6981 29.8817L36.4914 29.3835Z" fill="black"/>
	<path d="M15.6252 15L13.6252 17L14.6252 18L16.6252 16L18.6252 18L19.6252 17L17.6252 15L19.6252 13L18.6252 12L16.6252 14L14.6252 12L13.6252 13L15.6252 15Z" fill="black"/>
</svg>
