<svg width="48" height="48" viewBox="0 0 48 48" fill="none" xmlns="http://www.w3.org/2000/svg">
	<path d="M32.7265 4.84297C36.1891 3.91413 40.2815 4.86228 42.9224 7.79498C41.1264 7.81096 39.8122 8.27108 38.7837 9.01688C37.5743 9.89385 36.8138 11.1316 36.1239 12.3023L35.9971 12.5178C35.3403 13.6353 34.7286 14.6761 33.8285 15.4759C32.9257 16.278 31.7071 16.8548 29.8002 16.9083L26.4293 14.0952C26.2591 11.5314 26.9044 9.49175 28.022 7.96827C29.1726 6.3999 30.8471 5.3471 32.7265 4.84297Z" fill="#FF0000"/>
	<path fill-rule="evenodd" clip-rule="evenodd" d="M6.41737 44.0984C4.89562 45.3319 2.77178 43.5293 3.74129 41.8172C3.84451 41.6349 4.05965 41.1341 4.4004 40.3372L4.40186 40.3338C5.20334 38.4593 6.60304 35.1858 8.4868 31.7591C10.368 28.337 12.7516 24.7251 15.5335 22.1968C16.0501 21.7272 16.4958 21.3027 16.9104 20.9077L16.9229 20.8958C17.8285 20.033 18.5954 19.3024 19.5947 18.6038C20.6015 17.8999 21.8296 17.238 23.6663 16.4826L23.9452 16.368L27.7677 19.5553L27.7058 19.8496C27.2959 21.8008 26.8686 23.1324 26.36 24.2534C25.8551 25.3662 25.2766 26.2556 24.592 27.308L24.5826 27.3224C24.2721 27.7998 23.9383 28.3129 23.5735 28.9031C21.1897 32.7588 16.8716 36.5673 13.192 39.392C11.3451 40.8099 9.64544 41.9901 8.40736 42.816C7.78815 43.229 7.28398 43.5537 6.93407 43.7754C6.75911 43.8863 6.62268 43.9715 6.52969 44.0291C6.4832 44.0579 6.44756 44.0799 6.42339 44.0947L6.41737 44.0984ZM5.8669 43.2628L5.8749 43.258L5.90056 43.2423C5.92343 43.2282 5.95774 43.2071 6.00288 43.1791C6.09317 43.1232 6.22676 43.0398 6.39876 42.9308C6.74279 42.7128 7.24038 42.3923 7.85243 41.984C9.07688 41.1673 10.7578 40.0001 12.5831 38.5988C16.2479 35.7853 20.4407 32.0688 22.7229 28.3772C23.0941 27.7767 23.4334 27.2552 23.7433 26.7787L23.7444 26.7771C24.4379 25.7109 24.978 24.879 25.4493 23.8403C25.8947 22.8588 26.2845 21.6782 26.6644 19.9374L23.7689 17.523C22.1343 18.2104 21.0484 18.8076 20.1677 19.4234C19.235 20.0754 18.5177 20.7576 17.6002 21.6317L17.599 21.6328C17.1851 22.0271 16.732 22.4588 16.2061 22.9368C13.546 25.3544 11.2257 28.8526 9.36312 32.2408C7.50423 35.6223 6.12069 38.8575 5.31987 40.7304L5.29253 40.7943C4.98248 41.5195 4.74644 42.0716 4.61147 42.3099C4.17762 43.0761 5.14452 43.8638 5.80418 43.3079L5.83378 43.283L5.8669 43.2628ZM29.4442 17.9136L25.4654 14.5932L25.4482 14.3846C25.2106 11.5083 25.9113 9.15484 27.2158 7.3767C28.5173 5.60266 30.3967 4.43253 32.4674 3.87707C36.5955 2.76972 41.5604 4.08834 44.4059 8.04474L45.0386 8.92445L43.9587 8.83498C41.7579 8.65265 40.369 9.10258 39.3708 9.8264C38.3509 10.5659 37.682 11.6279 36.9855 12.8099C36.9378 12.8908 36.89 12.9722 36.842 13.0542C36.2037 14.142 35.516 15.3142 34.4927 16.2234C33.3659 17.2246 31.8605 17.8885 29.6284 17.9117L29.4442 17.9136ZM42.9224 7.79493C40.2815 4.86223 36.1891 3.91408 32.7265 4.84292C30.8472 5.34705 29.1727 6.39985 28.0221 7.96822C26.9044 9.4917 26.2592 11.5313 26.4294 14.0951L29.8003 16.9083C31.7072 16.8547 32.9257 16.278 33.8285 15.4758C34.7286 14.6761 35.3404 13.6352 35.9971 12.5178C36.0392 12.4462 36.0814 12.3744 36.1239 12.3022C36.8138 11.1315 37.5743 9.8938 38.7837 9.01683C39.8123 8.27103 41.1265 7.81091 42.9224 7.79493Z" fill="black"/>
</svg>
