<svg width="48" height="48" viewBox="0 0 48 48" fill="none" xmlns="http://www.w3.org/2000/svg">
	<path d="M36.6316 13.1096L37.1213 13.0088C37.1697 13.2438 37.0443 13.4801 36.8225 13.5717C36.6007 13.6633 36.3451 13.5844 36.2135 13.3838C35.2748 11.9526 34.5323 10.8954 33.9156 10.1878C33.6077 9.83457 33.3447 9.58439 33.118 9.42076C32.8904 9.25658 32.7264 9.19914 32.6114 9.18845C32.4347 9.17203 32.169 9.25844 31.7704 9.8682C31.3817 10.4629 30.9683 11.4054 30.4681 12.7382C30.4203 12.8657 30.4066 13.1199 30.4601 13.3921C30.4853 13.5203 30.5208 13.6271 30.5567 13.7009C30.5739 13.7362 30.5867 13.7551 30.5928 13.7633C30.6661 13.8121 30.7254 13.8795 30.7645 13.9589C31.2836 15.0143 31.8796 15.9589 32.6294 16.5355C33.3434 17.0847 34.2217 17.3216 35.4185 16.916C35.6467 16.8387 35.8968 16.7514 36.166 16.6575L36.1959 16.647C37.6231 16.1488 39.5815 15.4652 41.1933 15.2829C41.9973 15.192 42.8031 15.2136 43.4277 15.5187C43.7514 15.6769 44.0287 15.9125 44.2209 16.2417C44.4113 16.568 44.5 16.9548 44.5 17.3896C44.5 17.7832 44.3199 18.2741 44.064 18.7596C43.7979 19.2646 43.4139 19.8305 42.9316 20.3908C41.97 21.5079 40.5836 22.6418 38.8973 23.2132C37.1774 23.7959 35.7318 23.5044 34.7214 23.0643C34.3751 22.9134 34.0799 22.7453 33.8412 22.5892C33.8296 22.6654 33.8173 22.7461 33.8043 22.831C33.7003 23.5097 33.5523 24.4582 33.3763 25.5375C33.0499 27.5391 32.6259 29.9979 32.2065 32.021L39.0245 33.9137L41.1034 33.508C41.1796 33.4931 41.2582 33.4962 41.333 33.517L42.2965 33.7846L43.26 34.0523C43.4549 34.1064 43.5979 34.2726 43.6225 34.4733C43.647 34.674 43.5483 34.8698 43.3722 34.9693L43.1918 35.0713L43.9559 35.2836C44.222 35.3575 44.3777 35.6331 44.3038 35.8991L44.0362 36.8628C44.0007 36.9906 43.9159 37.099 43.8005 37.1643C43.685 37.2295 43.5484 37.2462 43.4206 37.2107L42.6566 36.9985L42.7586 37.179C42.8581 37.355 42.8418 37.5737 42.7172 37.733C42.5926 37.8923 42.3843 37.9609 42.1895 37.9067L41.226 37.6391L40.2624 37.3714C40.1876 37.3506 40.1187 37.3127 40.0611 37.2607L38.4897 35.8412L31.7624 33.9864C31.6653 34.3714 31.5695 34.717 31.4764 35.0093C30.9644 36.6178 29.9459 38.9462 28.6672 40.8825C28.028 41.8504 27.3107 42.7406 26.5428 43.3941C25.7799 44.0433 24.918 44.5 24 44.5C23.0801 44.5 22.2176 44.0369 21.4555 43.3823C20.688 42.7231 19.971 41.8262 19.3322 40.8542C18.0541 38.9095 17.0362 36.5824 16.5246 35.0126C16.1097 33.7393 15.6242 31.324 15.1952 28.9225L13.7802 29.6545L12.5328 31.3665C12.4871 31.4292 12.4274 31.4805 12.3585 31.5161L11.4703 31.9757L10.5821 32.4352C10.4025 32.5281 10.1845 32.5037 10.03 32.3733C9.87536 32.243 9.81453 32.0323 9.87583 31.8396L9.93865 31.6421L9.2344 32.0064C9.11662 32.0674 8.97945 32.079 8.85307 32.0388C8.72669 31.9986 8.62147 31.9099 8.56054 31.7921L8.10107 30.9038C7.97421 30.6585 8.07017 30.3568 8.31542 30.23L9.01983 29.8655L8.82231 29.8027C8.6296 29.7414 8.4928 29.57 8.47569 29.3685C8.45858 29.167 8.56453 28.975 8.74414 28.8821L9.63233 28.4226L10.5205 27.9631C10.5895 27.9274 10.6658 27.9083 10.7434 27.9072L12.8612 27.8781L14.8377 26.8555C14.615 25.5285 14.4209 24.3009 14.2791 23.3815C14.2329 23.0827 14.1923 22.8164 14.158 22.5897C13.9195 22.7456 13.6246 22.9136 13.2786 23.0643C12.2682 23.5044 10.8226 23.7959 9.1027 23.2132C7.41644 22.6418 6.02997 21.5079 5.06842 20.3908C4.58614 19.8305 4.20213 19.2646 3.93596 18.7596C3.68008 18.2741 3.5 17.7832 3.5 17.3896C3.5 16.9548 3.58869 16.568 3.77914 16.2417C3.97131 15.9125 4.24858 15.6769 4.5723 15.5187C5.19686 15.2136 6.00273 15.192 6.80667 15.2829C8.41847 15.4652 10.3769 16.1488 11.8041 16.647L11.834 16.6575C12.1032 16.7514 12.3533 16.8387 12.5815 16.916L12.4211 17.3896L12.5815 16.916C13.3059 17.1615 13.9122 17.1711 14.4351 17.0206L8.98988 14.3377L6.87184 14.3498C6.79421 14.3503 6.71754 14.3326 6.64791 14.2983L5.75095 13.8562M36.6316 13.1096L5.75095 13.8562M36.6316 13.1096C37.1213 13.0088 37.1213 13.0086 37.1212 13.0085L37.1211 13.0079L37.1207 13.0059L37.1192 12.9987L37.1136 12.972C37.1086 12.9487 37.1013 12.9148 37.0917 12.8709C37.0724 12.7832 37.0438 12.6559 37.006 12.4955C36.9303 12.1748 36.8177 11.7213 36.6692 11.1875C36.3731 10.1228 35.9313 8.72643 35.3515 7.425C34.7793 6.14074 34.0419 4.87641 33.1238 4.14604C32.6553 3.77338 32.1146 3.51979 31.5093 3.5011C30.9005 3.48231 30.2925 3.70317 29.6969 4.15728C27.4752 5.85102 26.455 8.10356 25.9895 9.91132C25.7565 10.8161 25.6606 11.6161 25.6228 12.1916C25.6039 12.4796 25.5995 12.7124 25.5999 12.875C25.5999 12.8815 25.6 12.8878 25.6 12.8941C25.1894 13.2276 24.6099 13.4121 24 13.4121C23.39 13.4121 22.8106 13.2276 22.4 12.8941C22.4 12.8878 22.4001 12.8815 22.4001 12.875C22.4005 12.7124 22.3961 12.4796 22.3772 12.1916C22.3394 11.6161 22.2435 10.8161 22.0105 9.91132C21.545 8.10356 20.5248 5.85102 18.3031 4.15728C17.7075 3.70317 17.0995 3.48231 16.4907 3.5011C15.8854 3.51979 15.3447 3.77338 14.8762 4.14604C13.9581 4.87641 13.2207 6.14074 12.6485 7.425C12.0687 8.72643 11.6269 10.1228 11.3308 11.1875C11.1823 11.7213 11.0697 12.1748 10.994 12.4955C10.9562 12.6559 10.9276 12.7832 10.9083 12.8709C10.8987 12.9148 10.8914 12.9487 10.8864 12.972L10.8808 12.9987L10.8793 13.0059L10.8789 13.0079L10.8788 13.0085C10.8787 13.0086 10.8787 13.0088 11.3684 13.1096L10.8787 13.0088C10.877 13.0172 10.8755 13.0256 10.8742 13.034L9.87373 12.5432L8.59354 10.8563C8.54661 10.7945 8.48593 10.7444 8.41631 10.7101L7.51934 10.2679L6.62236 9.8258C6.44097 9.73639 6.22358 9.76505 6.07156 9.89842C5.91954 10.0318 5.86282 10.2436 5.92786 10.4351L5.99452 10.6313L5.28331 10.2807C5.16436 10.2221 5.02698 10.2131 4.90141 10.2558C4.77584 10.2984 4.67236 10.3892 4.61374 10.5082L4.17166 11.4053C4.0496 11.653 4.15142 11.9527 4.39909 12.0748L5.11046 12.4254L4.9142 12.4921C4.72272 12.5572 4.58929 12.7312 4.57611 12.933C4.56292 13.1347 4.67259 13.3246 4.85398 13.414L5.75095 13.8562M36.6316 13.1096L5.97202 13.4077L5.75095 13.8562M17.4433 13.7009C17.4261 13.7362 17.4133 13.7551 17.4072 13.7633C17.3339 13.8121 17.2746 13.8795 17.2355 13.9589C16.932 14.5761 16.5997 15.1609 16.2216 15.657L11.7308 13.4542C11.7511 13.4327 11.7698 13.4092 11.7865 13.3838C12.726 11.9513 13.4695 10.8777 14.0884 10.1496C14.3974 9.78616 14.6621 9.52477 14.8915 9.351C15.1224 9.17604 15.2887 9.11183 15.4042 9.09744C15.5703 9.07673 15.8295 9.14509 16.2274 9.76444C16.6156 10.3687 17.0293 11.3395 17.5294 12.7316L17.5294 12.7316L17.5319 12.7382C17.5797 12.8657 17.5934 13.1199 17.5399 13.3921C17.5146 13.5203 17.4792 13.6271 17.4433 13.7009ZM25.276 36.1964C25.4585 36.2879 25.6339 36.3924 25.8009 36.505C24.5428 36.2139 23.3639 36.2991 22.3914 36.5154C22.1873 36.5608 21.992 36.612 21.8066 36.6668C22.2564 36.2901 22.6847 36.0657 23.0815 35.9464C23.8648 35.7108 24.6063 35.8609 25.276 36.1964ZM28 24.2904L27.7071 23.9974L28.3536 23.3508C28.5488 23.1556 28.5488 22.839 28.3536 22.6438L27.7071 21.9972L28 21.7042L28.6464 22.3507C28.7402 22.4445 28.8674 22.4972 29 22.4972C29.1326 22.4972 29.2598 22.4445 29.3536 22.3507L30 21.7042L30.2929 21.9972L29.6464 22.6438C29.4512 22.839 29.4512 23.1556 29.6464 23.3508L30.2929 23.9974L30 24.2904L29.3536 23.6439C29.2598 23.5501 29.1326 23.4974 29 23.4974C28.8674 23.4974 28.7402 23.5501 28.6464 23.6439L28 24.2904ZM18 21.7042L18.6464 22.3507C18.7402 22.4445 18.8674 22.4972 19 22.4972C19.1326 22.4972 19.2598 22.4445 19.3536 22.3507L20 21.7042L20.2929 21.9972L19.6464 22.6438C19.4512 22.839 19.4512 23.1556 19.6464 23.3508L20.2929 23.9974L20 24.2904L19.3536 23.6439C19.2598 23.5501 19.1326 23.4974 19 23.4974C18.8674 23.4974 18.7402 23.5501 18.6464 23.6439L18 24.2904L17.7071 23.9974L18.3536 23.3508C18.5488 23.1556 18.5488 22.839 18.3536 22.6438L17.7071 21.9972L18 21.7042Z" fill="#B00000" stroke="black" stroke-linejoin="round"/>
</svg>
