<svg width="48" height="48" viewBox="0 0 48 48" fill="none" xmlns="http://www.w3.org/2000/svg">
	<path d="M17.9222 29.5125C12.0454 19.5516 6.18934 17.5 4 17.5C3.72386 17.5 3.5 17.7239 3.5 18C3.5 21.0916 4.52491 25.665 6.79813 30.464C9.07474 35.2702 12.6185 40.3351 17.6877 44.3904C17.8577 44.5265 18.0962 44.5368 18.2774 44.416C24.3744 40.3514 30.9214 31.7693 35.9276 23.5092C38.437 19.3687 40.5725 15.2869 42.0826 11.8578C42.8375 10.1435 43.4388 8.58626 43.8523 7.26234C44.2624 5.94907 44.5 4.82782 44.5 4C44.5 3.72386 44.2761 3.5 44 3.5C43.3382 3.5 42.5024 3.79788 41.587 4.26243C40.6535 4.73616 39.5714 5.41814 38.3962 6.2599C36.0446 7.94439 33.2844 10.2946 30.5396 12.9732C25.3844 18.0039 20.2113 24.263 17.9222 29.5125Z" fill="#448800" stroke="black" stroke-linejoin="round"/>
</svg>
