<svg width="48" height="48" viewBox="0 0 48 48" fill="none" xmlns="http://www.w3.org/2000/svg">
	<path d="M44 44.5C44.2761 44.5 44.5 44.2761 44.5 44C44.5 42.829 44.1255 41.4522 43.4833 39.9507C42.8382 38.4424 41.9079 36.7739 40.7614 35.0094C38.5351 31.5832 35.4715 27.7619 32.0303 24C35.4715 20.2381 38.5351 16.4168 40.7614 12.9906C41.9079 11.2261 42.8382 9.5576 43.4833 8.04932C44.1255 6.54777 44.5 5.17104 44.5 4C44.5 3.72386 44.2761 3.5 44 3.5C42.829 3.5 41.4522 3.87449 39.9507 4.51671C38.4424 5.1618 36.7739 6.09205 35.0094 7.23857C31.5832 9.46492 27.7619 12.5285 24 15.9697C20.2381 12.5285 16.4168 9.46492 12.9906 7.23857C11.2261 6.09205 9.5576 5.1618 8.04932 4.51671C6.54777 3.87449 5.17104 3.5 4 3.5C3.72386 3.5 3.5 3.72386 3.5 4C3.5 5.17104 3.87449 6.54777 4.51671 8.04932C5.1618 9.5576 6.09205 11.2261 7.23857 12.9906C9.46492 16.4168 12.5285 20.2381 15.9697 24C12.5285 27.7619 9.46492 31.5832 7.23857 35.0094C6.09205 36.7739 5.1618 38.4424 4.51671 39.9507C3.87449 41.4522 3.5 42.829 3.5 44C3.5 44.2761 3.72386 44.5 4 44.5C5.17104 44.5 6.54777 44.1255 8.04932 43.4833C9.5576 42.8382 11.2261 41.9079 12.9906 40.7614C16.4168 38.5351 20.2381 35.4715 24 32.0303C27.7619 35.4715 31.5832 38.5351 35.0094 40.7614C36.7739 41.9079 38.4424 42.8382 39.9507 43.4833C41.4522 44.1255 42.829 44.5 44 44.5Z" fill="#880044" stroke="black" stroke-linejoin="round"/>
</svg>
