<svg width="48" height="48" viewBox="0 0 48 48" fill="none" xmlns="http://www.w3.org/2000/svg">
	<path d="M10.1116 39L5.22135 32.3334L4.35192 32.4697L4 31.2286L7.9851 30.1274L8.33703 31.3687L7.57781 31.7084L10.5678 36.1971L10.7505 36.517L10.7872 36.5069L10.7739 36.1595L10.916 30.7861L9.93 30.9285L9.57808 29.6872L13.3007 28.6587L13.6521 29.9L12.813 30.2358L12.4307 38.3593L10.1116 39Z" fill="#00B040"/>
	<path fill-rule="evenodd" clip-rule="evenodd" d="M20.0591 36.9036C19.4448 37.0733 18.8479 37.1191 18.2686 37.0409C17.6922 36.9576 17.1583 36.7674 16.6661 36.4702C16.1738 36.1731 15.7478 35.784 15.3877 35.3031C15.0306 34.817 14.7621 34.2566 14.5822 33.6219L14.5428 33.4833C14.364 32.8526 14.3003 32.2401 14.3511 31.6456C14.4061 31.05 14.5635 30.4995 14.8239 29.9944C15.0884 29.4881 15.4452 29.0517 15.8941 28.6851C16.3429 28.3185 16.8743 28.0504 17.4886 27.8807C18.0907 27.7143 18.6822 27.6722 19.2626 27.7544C19.8431 27.8366 20.3835 28.0251 20.8838 28.32C21.3882 28.6138 21.8243 29 22.1925 29.4787C22.5607 29.9574 22.8342 30.5121 23.0129 31.1427L23.0523 31.2814C23.2322 31.9161 23.291 32.5343 23.2291 33.1362C23.166 33.734 22.9986 34.2873 22.726 34.7958C22.4533 35.3043 22.0901 35.7423 21.6372 36.11C21.1831 36.4737 20.6572 36.7383 20.0591 36.9036ZM20.9472 34.0918C20.7238 34.7122 20.2762 35.1152 19.605 35.3007C18.8971 35.4963 18.3011 35.3817 17.8166 34.9568C17.3321 34.5319 16.9677 33.8896 16.7241 33.03L16.6815 32.8794C16.4401 32.0278 16.4114 31.2993 16.5952 30.6941C16.7831 30.0877 17.2329 29.6862 17.9449 29.4894C18.6203 29.3028 19.219 29.4189 19.7413 29.8377C20.2624 30.2525 20.6421 30.8796 20.8801 31.7192L20.9227 31.8699C21.1652 32.7255 21.1735 33.4661 20.9472 34.0918Z" fill="#00B040"/>
	<path fill-rule="evenodd" clip-rule="evenodd" d="M17.9448 29.4894C18.6201 29.3028 19.2188 29.4189 19.7411 29.8377C20.2623 30.2525 20.6421 30.8797 20.88 31.7192L20.9226 31.87C21.1651 32.7256 21.1733 33.4661 20.9471 34.0917C20.7237 34.7122 20.2761 35.1152 19.6048 35.3007C18.897 35.4963 18.301 35.3817 17.8165 34.9568C17.3319 34.5319 16.9676 33.8896 16.724 33.03L16.6814 32.8794C16.44 32.0278 16.4113 31.2993 16.5951 30.6941C16.783 30.0877 17.2328 29.6862 17.9448 29.4894ZM17.6861 32.7573C17.8966 33.5002 18.1821 33.9474 18.4758 34.2049C18.6684 34.3738 18.9022 34.4574 19.3385 34.3368C19.7177 34.232 19.9 34.0481 20.0062 33.7531L20.0067 33.7516C20.1412 33.3797 20.1649 32.8639 19.9605 32.1426L19.9179 31.9918C19.7194 31.2917 19.4319 30.8697 19.1184 30.6201L19.1156 30.6179C18.8573 30.4108 18.5939 30.3475 18.2111 30.4533C17.7665 30.5762 17.6206 30.7653 17.5511 30.9875C17.4419 31.3498 17.4349 31.8708 17.6435 32.6067L17.6861 32.7573Z" fill="black"/>
	<path d="M26.0908 34.445L25.7405 33.2098L26.6136 32.7606L24.9961 27.0544L23.6231 27.4339L23.836 28.3951L22.2191 28.8419L21.4865 26.257L29.7431 23.9755L30.4757 26.5604L28.8402 27.0124L28.5234 26.0798L27.138 26.4626L28.7555 32.1688L29.7378 32.1053L30.0876 33.3405L26.0908 34.445Z" fill="#00B040"/>
	<path d="M33.1793 32.4697L32.829 31.2345L33.6957 30.7871L32.0202 24.876L31.0443 24.9379L30.6924 23.6966L37.79 21.7355L38.5071 24.2662L36.8897 24.713L36.5851 23.8227L34.217 24.477L34.7276 26.2786L37.5653 25.4944L38.0248 27.1154L35.187 27.8995L35.7796 29.9903L38.2633 29.304L38.044 28.3445L39.6433 27.9028L40.3738 30.4817L33.1793 32.4697Z" fill="#00B040"/>
	<path d="M32.9972 22.3776L33.8001 20.3818L35.9846 19.7782L36.0075 19.811L34.7547 21.892L32.9972 22.3776Z" fill="#00B040"/>
	<path d="M40.9754 26.9647L39.3717 21.3068L41.5136 20.7148L43.1173 26.3729L40.9754 26.9647Z" fill="#00B040"/>
	<path d="M41.8581 30.0799L41.3662 28.3445L43.5086 27.7527L44 29.488L41.8581 30.0799Z" fill="#00B040"/>
	<path d="M14.5377 23.2525L14.0561 21.5449L14.8814 21.1834L15.6391 9.8814L18.8448 9L25.418 18.2864L26.3137 18.1747L26.7953 19.8823L22.2061 21.1441L21.7245 19.4365L22.4836 19.0662L21.7413 17.8522L17.7932 18.9377L17.8101 20.3512L18.6538 20.2808L19.1353 21.9884L14.5377 23.2525ZM17.8396 16.717L20.5307 15.9771L18.2968 12.6331L18.042 12.2454L17.9914 12.2594L17.9795 12.7653L17.8396 16.717Z" fill="#00B040"/>
	<path fill-rule="evenodd" clip-rule="evenodd" d="M4.77486 33.4156L9.713 40.1475L13.3955 39.1302L13.4624 37.7083L13.6388 33.9597C13.8482 34.6729 14.1603 35.3216 14.5817 35.8952L14.5871 35.9024C14.7715 36.1488 14.9718 36.3768 15.1878 36.5858C15.4796 36.8681 15.8001 37.1156 16.1491 37.3263C16.7572 37.6934 17.4185 37.9284 18.1254 38.0306L18.1348 38.0319C18.8595 38.1297 19.5927 38.0699 20.3253 37.8674C21.0455 37.6684 21.6955 37.3445 22.2622 36.8905L22.2674 36.8864C22.8217 36.4363 23.2709 35.8955 23.6072 35.2683C23.9438 34.6405 24.1475 33.9616 24.2235 33.2411L24.2237 33.2385C24.2997 32.4999 24.2255 31.7537 24.0141 31.008L23.9747 30.8694C23.8411 30.3981 23.6602 29.9554 23.4302 29.5447L24.573 29.2289L25.4282 32.2458L24.5549 32.695L25.3996 35.6734L31.3238 34.0363L30.4797 31.0552L29.4971 31.1187L28.6427 28.1044L31.6595 27.2707L32.5106 30.2734L31.6437 30.7208L32.4881 33.6981L41.1646 31.3006L41.1668 31.3084L45.2362 30.1838L44.1995 26.5243L42.2047 19.4863L38.4833 20.5148L38.4811 20.507L36.4113 21.0789L37.1985 19.7713L36.4003 18.6258L33.0568 19.5497L31.9452 22.3129L29.4556 23.0008L29.46 23.0162L20.2498 25.5612L20.6888 27.1101C20.2786 26.9429 19.8493 26.8275 19.4027 26.7643C18.6776 26.6616 17.9478 26.7163 17.2222 26.9168C16.4874 27.1198 15.8281 27.4477 15.2614 27.9106C14.9299 28.1813 14.6374 28.4849 14.3856 28.8202L13.9921 27.4302L2.76318 30.5328L3.63141 33.5948L4.77486 33.4156ZM14.351 31.6456C14.3843 31.2845 14.4553 30.94 14.564 30.6121C14.6187 30.4474 14.6828 30.2869 14.7566 30.1306C14.7781 30.0848 14.8006 30.0394 14.8238 29.9944C15.0883 29.4881 15.4451 29.0517 15.8939 28.6851C16.3428 28.3185 16.8742 28.0504 17.4885 27.8807C18.0906 27.7143 18.6821 27.6722 19.2625 27.7544C19.8429 27.8366 20.3834 28.0251 20.8837 28.32C20.9444 28.3554 21.0041 28.3921 21.0629 28.4301C21.3078 28.5888 21.5356 28.7707 21.7462 28.9759C21.9046 29.1303 22.0533 29.2979 22.1924 29.4787C22.277 29.5887 22.3566 29.7027 22.4312 29.8207C22.6813 30.2163 22.8751 30.657 23.0128 31.1427L23.0522 31.2814C23.0674 31.3349 23.0817 31.3883 23.0951 31.4416C23.2412 32.0202 23.2857 32.585 23.229 33.1362C23.1659 33.734 22.9985 34.2873 22.7258 34.7958C22.4532 35.3043 22.09 35.7423 21.6371 36.11C21.183 36.4737 20.657 36.7383 20.059 36.9035C19.4447 37.0733 18.8478 37.119 18.2685 37.0409C17.6921 36.9576 17.1581 36.7674 16.6659 36.4702C16.4487 36.3391 16.2443 36.19 16.0528 36.0231C15.8105 35.8117 15.5887 35.5717 15.3876 35.3031C15.0305 34.817 14.762 34.2566 14.5821 33.6219L14.5427 33.4832C14.3639 32.8526 14.3001 32.24 14.351 31.6456ZM23.8359 28.3951L22.219 28.8419L21.4864 26.2569L29.743 23.9754L30.4756 26.5604L28.84 27.0124L28.5233 26.0798L27.138 26.4628L28.7554 32.1688L29.7377 32.1053L30.0875 33.3405L26.0907 34.445L25.7403 33.2098L26.6135 32.7606L24.996 27.0544L23.6229 27.4338L23.8359 28.3951ZM33.6956 30.7871L32.0201 24.8759L31.0442 24.9378L30.6924 23.6965L37.7899 21.7357L38.507 24.2661L36.8896 24.713L36.585 23.8227L34.2169 24.4769L34.7276 26.2786L37.5652 25.4944L38.0247 27.1154L35.1869 27.8995L35.7795 29.9903L38.2632 29.304L38.0438 28.3445L39.6432 27.9027L40.3737 30.4817L33.1792 32.4697L32.8289 31.2345L33.6956 30.7871ZM39.0404 27.0318L38.5473 25.2925L39.3955 25.0581L39.8885 26.7976L39.0404 27.0318ZM36.4235 28.5953L37.0366 28.4259L37.0753 28.5948L36.4707 28.7618L36.4235 28.5953ZM35.9845 19.7782L36.0074 19.811L34.7546 21.892L32.9971 22.3776L33.8 20.3818L35.9845 19.7782ZM9.06552 32.1382L9.31103 32.0283L9.88489 31.9454L9.84869 33.3139L9.06552 32.1382ZM9.92988 30.9285L10.9159 30.786L10.7738 36.1595L10.7871 36.5069L10.7503 36.517L10.5677 36.1971L7.57769 31.7084L8.33691 31.3686L7.98486 30.1274L3.99988 31.2285L4.3518 32.4697L5.22123 32.3334L10.1114 39L12.4306 38.3593L12.8129 30.2358L13.652 29.9L13.3004 28.6587L9.57796 29.6872L9.92988 30.9285ZM12.8572 20.9784L13.8448 24.4801L20.3709 22.6857L19.4759 19.5122L20.6181 19.1981L21.5131 22.3717L28.0308 20.5796L27.0427 17.0761L25.8882 17.22L19.2557 7.84985L14.6887 9.10554L13.9241 20.511L12.8572 20.9784ZM21.7412 17.8522L17.7931 18.9377L17.8099 20.3512L18.6536 20.2808L19.1352 21.9884L14.5376 23.2525L14.056 21.5449L14.8812 21.1834L15.639 9.88139L18.8447 8.99998L25.4179 18.2864L26.3136 18.1747L26.7951 19.8823L22.2059 21.144L21.7244 19.4365L22.4835 19.0662L21.7412 17.8522ZM20.5306 15.9771L17.8395 16.717L17.9794 12.7652L17.9913 12.2593L18.0419 12.2454L18.2967 12.6331L20.5306 15.9771ZM18.887 15.3919L18.8895 15.3208L18.9293 15.3803L18.887 15.3919ZM39.3716 21.3068L40.9752 26.9646L43.1171 26.3729L41.5135 20.7148L39.3716 21.3068ZM41.366 28.3445L41.858 30.0799L43.9999 29.488L43.5085 27.7527L41.366 28.3445Z" fill="black"/>
</svg>
